<?xml version="1.0" standalone="no"?>
<!DOCTYPE svg PUBLIC "-//W3C//DTD SVG 20010904//EN"
 "http://www.w3.org/TR/2001/REC-SVG-20010904/DTD/svg10.dtd">
<svg version="1.0" xmlns="http://www.w3.org/2000/svg"
 width="500.000000pt" height="500.000000pt" viewBox="0 0 500.000000 500.000000"
 preserveAspectRatio="xMidYMid meet">
<metadata>
Created by potrace 1.14, written by Peter Selinger 2001-2017
</metadata>
<g transform="translate(0.000000,500.000000) scale(0.100000,-0.100000)"
fill="#000000" stroke="none">
<path d="M2410 4299 c0 -42 -3 -49 -20 -49 -17 0 -20 -7 -20 -50 l0 -50 -55 0
-55 0 0 -90 0 -90 -50 0 c-55 0 -52 5 -51 -87 l0 -53 -49 0 -50 0 -1 -142 c0
-79 0 -182 1 -230 l1 -88 -55 0 -56 0 0 -625 0 -625 -39 0 c-66 0 -66 -1 -65
-100 l1 -90 -49 0 c-45 0 -49 -2 -48 -22 1 -13 2 -40 1 -60 l-1 -38 -55 0 -55
0 -1 -37 c-1 -50 -1 -487 0 -539 l1 -41 102 1 103 1 1 53 c1 29 5 56 8 59 3 4
52 7 108 7 l103 1 -2 57 c-2 62 2 66 57 64 l35 -1 3 -63 3 -63 37 1 c68 3 70
3 66 -32 -1 -18 -3 -44 -3 -58 -1 -24 -4 -26 -46 -24 -25 1 -48 -3 -52 -9 -7
-11 -6 -347 1 -354 3 -3 26 -6 53 -7 l48 -1 0 -107 0 -108 40 -1 c22 -1 50 0
61 0 27 3 31 -9 30 -91 -1 -38 1 -68 4 -69 3 -1 58 -2 123 -3 77 -2 117 1 118
8 1 6 2 43 3 81 l1 70 60 1 c33 1 65 2 71 3 8 1 11 36 10 106 0 58 1 106 4
106 3 1 41 3 85 4 44 2 84 3 88 4 4 1 7 84 5 185 l-2 183 -83 1 c-46 0 -86 1
-88 3 -3 4 -8 73 -6 96 1 7 20 13 44 15 l42 3 1 51 c0 27 3 55 7 61 4 6 44 10
99 9 l93 -1 2 -30 c0 -17 2 -44 2 -62 l1 -32 68 -3 67 -3 -3 -53 c-2 -48 0
-52 20 -53 106 -4 181 -3 189 1 6 5 12 337 9 583 0 26 -3 28 -32 27 -75 -4
-75 -4 -73 48 0 26 0 52 -2 58 -2 6 -27 9 -58 8 l-55 -2 0 102 0 103 -62 -1
-63 0 -2 609 c-1 336 -2 616 -2 623 -1 8 -19 12 -56 12 l-55 0 0 225 c0 173
-3 225 -12 226 -7 1 -27 2 -45 2 l-32 1 1 68 c0 38 -2 71 -6 75 -3 3 -24 6
-46 5 l-40 -2 0 90 0 90 -70 0 -70 0 0 50 c0 49 -5 55 -37 51 -9 -1 -13 12
-13 36 0 21 -4 43 -8 50 -4 7 -39 11 -94 11 l-88 -1 0 -48z"/>
</g>
</svg>
